<svg width="178.000000" height="36.363800" viewBox="0 0 178 36.3638" fill="none" xmlns="http://www.w3.org/2000/svg" xmlns:xlink="http://www.w3.org/1999/xlink">
	<desc>
			Created with Pixso.
	</desc>
	<defs/>
	<path d="M3.13306 34.4587C1.40991 34.4587 0 33.0488 0 31.3256L0 20.372L7.88623 20.372L7.88623 20.3598L12.6262 20.3598C13.8481 20.3285 14.8821 19.2633 14.8821 18.01C14.8821 16.7255 13.8169 15.6602 12.5322 15.6602L6.26611 15.6602L6.26611 15.6622L0 15.6622L0 12.5272C0 10.804 1.40991 9.3941 3.13306 9.3941L12.5322 9.3941C14.9135 9.3941 16.95 10.24 18.6105 11.9319C20.3022 13.5924 21.1482 15.6289 21.1482 18.01C21.1482 20.3598 20.3336 22.3963 18.6731 24.0569C17.0126 25.7174 15.0074 26.5947 12.6576 26.626L6.26611 26.626L6.26611 31.3256C6.26611 33.0488 4.8562 34.4587 3.13306 34.4587Z" clip-rule="evenodd" fill="#02BC6B" fill-opacity="1.000000" fill-rule="evenodd"/>
	<path d="M25.0974 5.7578C28.559 9.11993 30.3031 13.3073 30.3031 18.0672C30.3031 22.7473 28.632 26.9307 25.2239 30.3034L20.3853 25.7508C22.5046 23.6533 23.545 21.128 23.545 18.0672C23.545 14.9832 22.4734 12.4619 20.3031 10.3538L25.0974 5.7578Z" fill="#02897A" fill-opacity="1.000000" fill-rule="evenodd"/>
	<path d="M32.5055 0C37.4911 4.97781 39.9999 11.1499 39.9999 18.2338C39.9999 25.2071 37.5922 31.3753 32.6885 36.3638L28.0187 31.8009C31.6715 28.085 33.4613 23.5781 33.4613 18.2338C33.4613 12.8358 31.6111 8.33276 27.8787 4.60616L32.5055 0Z" fill="#035B81" fill-opacity="1.000000" fill-rule="evenodd"/>
	<path d="M0 26.6524L6.26611 26.6524L6.26611 31.326C6.26611 33.0492 4.8562 34.4591 3.13306 34.4591C1.40991 34.4591 0 33.0492 0 31.326L0 26.6524Z" clip-rule="evenodd" fill="#028E37" fill-opacity="1.000000" fill-rule="evenodd"/>
	<path d="M108.454 15.57Q107.494 17.52 107.494 20.1Q107.494 22.68 108.454 24.66C109.114 25.96 110.004 26.97 111.124 27.69Q111.723 28.0644 112.372 28.3052Q113.542 28.74 114.874 28.74C116.054 28.74 117.084 28.5 117.964 28.02C118.864 27.54 119.554 26.9 120.034 26.1L120.034 28.5L125.164 28.5L125.164 6.3L120.034 6.3L120.034 14.07C119.514 13.29 118.794 12.67 117.874 12.21C116.974 11.75 115.974 11.52 114.874 11.52Q113.542 11.52 112.372 11.9548Q111.723 12.1956 111.124 12.57C110.004 13.27 109.114 14.27 108.454 15.57ZM73.07 17.58C73.63 16.56 73.91 15.44 73.91 14.22C73.91 12.9 73.62 11.73 73.04 10.71C72.46 9.69 71.59 8.89 70.43 8.31C69.27 7.73 67.85 7.44 66.17 7.44L57.86 7.44L57.86 28.5L62.99 28.5L62.99 20.94L66.17 20.94C67.89 20.94 69.33 20.63 70.49 20.01C71.65 19.39 72.51 18.58 73.07 17.58ZM176.585 28.5L176.585 24.15L174.755 24.15C174.195 24.15 173.795 24.04 173.555 23.82C173.315 23.6 173.195 23.24 173.195 22.74L173.195 16.02L176.555 16.02L176.555 11.76L173.195 11.76L173.195 7.68L168.065 7.68L168.065 11.76L166.025 11.76L166.025 16.02L168.065 16.02L168.065 22.68C168.065 24.74 168.585 26.23 169.625 27.15C170.665 28.05 172.115 28.5 173.975 28.5L176.585 28.5ZM93.0509 27.916Q94.8535 28.74 97.0327 28.74C98.6727 28.74 100.153 28.39 101.473 27.69C102.813 26.99 103.863 25.99 104.623 24.69C105.403 23.37 105.793 21.85 105.793 20.13C105.793 18.41 105.413 16.9 104.653 15.6C103.893 14.28 102.853 13.27 101.533 12.57Q101.307 12.4502 101.075 12.344Q99.272 11.52 97.0927 11.52Q94.9135 11.52 93.1109 12.344Q92.8787 12.4502 92.6527 12.57C91.3327 13.27 90.2927 14.28 89.5327 15.6C88.7727 16.9 88.3927 18.41 88.3927 20.13C88.3927 21.87 88.7627 23.39 89.5027 24.69C90.2627 25.99 91.2927 26.99 92.5927 27.69Q92.8187 27.8098 93.0509 27.916ZM149.12 15.57C148.42 16.87 148.07 18.39 148.07 20.13C148.07 21.87 148.42 23.39 149.12 24.69C149.84 25.99 150.83 26.99 152.09 27.69Q152.181 27.7395 152.273 27.7866Q154.126 28.74 156.47 28.74Q159.005 28.74 160.886 27.6315Q161.321 27.3753 161.72 27.06C163.14 25.94 164.07 24.4 164.51 22.44L159.05 22.44Q158.69 23.4434 157.977 23.9225Q157.326 24.36 156.38 24.36Q155.621 24.36 155.026 24.0463Q154.518 23.778 154.13 23.28C153.57 22.54 153.29 21.49 153.29 20.13C153.29 18.77 153.57 17.73 154.13 17.01Q154.537 16.473 155.077 16.1958Q155.653 15.9 156.38 15.9Q157.326 15.9 157.977 16.3375Q158.69 16.8166 159.05 17.82L164.51 17.82C164.07 15.82 163.14 14.27 161.72 13.17C160.32 12.07 158.57 11.52 156.47 11.52Q154.126 11.52 152.273 12.4734Q152.181 12.5205 152.09 12.57C150.83 13.27 149.84 14.27 149.12 15.57ZM67.97 16.17C67.49 16.63 66.76 16.86 65.78 16.86L62.99 16.86L62.99 11.58L65.78 11.58Q67.25 11.58 67.97 12.27Q68.0768 12.3724 68.1678 12.4873Q68.69 13.1469 68.69 14.22Q68.69 15.2931 68.1678 15.9527Q68.0768 16.0676 67.97 16.17ZM83.9607 12.39C83.0607 12.91 82.3107 13.63 81.7107 14.55L81.7107 11.76L76.5807 11.76L76.5807 28.5L81.7107 28.5L81.7107 20.73C81.7107 19.35 82.0307 18.39 82.6707 17.85C83.3107 17.29 84.2707 17.01 85.5507 17.01L86.9607 17.01L86.9607 11.58Q85.866 11.58 84.9033 11.9365Q84.415 12.1174 83.9607 12.39ZM145.406 28.5L145.406 11.76L140.276 11.76L140.276 20.85Q140.276 22.4544 139.482 23.3747Q139.445 23.4181 139.406 23.46C138.826 24.08 138.036 24.39 137.036 24.39C136.056 24.39 135.276 24.08 134.696 23.46C134.116 22.84 133.826 21.97 133.826 20.85L133.826 11.76L128.726 11.76L128.726 21.54C128.726 23 128.996 24.27 129.536 25.35Q130.088 26.4544 130.947 27.2102Q131.348 27.5631 131.816 27.84C132.796 28.4 133.926 28.68 135.206 28.68C136.286 28.68 137.266 28.46 138.146 28.02Q139.437 27.3597 140.207 26.3149Q140.242 26.2678 140.276 26.22L140.276 28.5L145.406 28.5ZM99.5227 23.22C98.8427 23.94 98.0127 24.3 97.0327 24.3Q96.2902 24.3 95.6701 24.0244Q95.0626 23.7544 94.5727 23.22Q93.6127 22.14 93.6127 20.13C93.6127 18.77 93.9427 17.74 94.6027 17.04C95.2627 16.32 96.0927 15.96 97.0927 15.96Q97.8353 15.96 98.4554 16.2356Q99.0628 16.5056 99.5527 17.04Q99.572 17.0604 99.5909 17.0811Q100.573 18.158 100.573 20.13C100.573 21.47 100.223 22.5 99.5227 23.22ZM118.954 17.1C119.674 17.84 120.034 18.85 120.034 20.13C120.034 21.41 119.674 22.42 118.954 23.16C118.254 23.9 117.394 24.27 116.374 24.27C115.354 24.27 114.484 23.9 113.764 23.16C113.064 22.4 112.714 21.38 112.714 20.1C112.714 18.82 113.064 17.82 113.764 17.1C114.484 16.36 115.354 15.99 116.374 15.99C117.394 15.99 118.254 16.36 118.954 17.1Z" fill="#173A56" fill-opacity="1.000000" fill-rule="evenodd"/>
</svg>
