<svg width="146.000000" height="50.000000" viewBox="0 0 146 50" fill="none" xmlns="http://www.w3.org/2000/svg" xmlns:xlink="http://www.w3.org/1999/xlink">
	<desc>
			Created with Pixso.
	</desc>
	<defs>
		<clipPath id="clip34_1672">
			<rect width="146.000000" height="50.000000" fill="white" fill-opacity="0"/>
		</clipPath>
	</defs>
	<rect width="146.000000" height="50.000000" fill="#FFFFFF" fill-opacity="0"/>
	<g clip-path="url(#clip34_1672)">
		<path d="M62.12 25.64C62.12 32.58 56.76 37.69 50.18 37.69C43.6 37.69 38.24 32.58 38.24 25.64C38.24 18.65 43.6 13.58 50.18 13.58C56.76 13.58 62.12 18.65 62.12 25.64ZM56.9 25.64C56.9 21.3 53.79 18.33 50.18 18.33C46.58 18.33 43.47 21.3 43.47 25.64C43.47 29.93 46.58 32.94 50.18 32.94C53.79 32.94 56.9 29.92 56.9 25.64Z" fill="#EA4335" fill-opacity="1.000000" fill-rule="nonzero"/>
		<path d="M87.89 25.64C87.89 32.58 82.53 37.69 75.95 37.69C69.37 37.69 64 32.58 64 25.64C64 18.65 69.37 13.58 75.95 13.58C82.53 13.58 87.89 18.65 87.89 25.64ZM82.66 25.64C82.66 21.3 79.55 18.33 75.95 18.33C72.34 18.33 69.23 21.3 69.23 25.64C69.23 29.93 72.34 32.94 75.95 32.94C79.55 32.94 82.66 29.92 82.66 25.64Z" fill="#FBBC05" fill-opacity="1.000000" fill-rule="nonzero"/>
		<path d="M112.58 14.31L112.58 35.95C112.58 44.85 107.4 48.49 101.27 48.49C95.5 48.49 92.02 44.58 90.71 41.39L95.26 39.47C96.08 41.43 98.06 43.74 101.26 43.74C105.18 43.74 107.62 41.29 107.62 36.68L107.62 34.95L107.43 34.95C106.26 36.41 104.01 37.69 101.16 37.69C95.21 37.69 89.76 32.44 89.76 25.68C89.76 18.88 95.21 13.58 101.16 13.58C104 13.58 106.26 14.86 107.43 16.28L107.62 16.28L107.62 14.32L112.58 14.32L112.58 14.31ZM107.99 25.68C107.99 21.44 105.19 18.33 101.63 18.33C98.02 18.33 95 21.44 95 25.68C95 29.88 98.02 32.94 101.63 32.94C105.19 32.94 107.99 29.88 107.99 25.68Z" fill="#4285F4" fill-opacity="1.000000" fill-rule="nonzero"/>
		<path d="M120.77 1.63L120.77 36.95L115.67 36.95L115.67 1.63L120.77 1.63Z" fill="#34A853" fill-opacity="1.000000" fill-rule="nonzero"/>
		<path d="M140.64 29.6L144.7 32.34C143.39 34.3 140.23 37.69 134.78 37.69C128.01 37.69 122.96 32.39 122.96 25.63C122.96 18.46 128.06 13.58 134.19 13.58C140.37 13.58 143.39 18.55 144.38 21.25L144.92 22.61L129.01 29.29C130.23 31.71 132.12 32.94 134.78 32.94C137.44 32.94 139.29 31.61 140.64 29.6ZM128.15 25.27L138.79 20.79C138.2 19.29 136.44 18.24 134.37 18.24C131.71 18.24 128.01 20.61 128.15 25.27Z" fill="#EA4335" fill-opacity="1.000000" fill-rule="nonzero"/>
		<path d="M18.94 22.5L18.94 17.39L35.96 17.39C36.12 18.28 36.21 19.33 36.21 20.47C36.21 24.31 35.17 29.05 31.84 32.44C28.59 35.86 24.44 37.69 18.94 37.69C8.75 37.69 0.19 29.28 0.19 18.97C0.19 8.65 8.75 0.25 18.94 0.25C24.58 0.25 28.59 2.49 31.61 5.41L28.05 9.02C25.88 6.96 22.95 5.36 18.94 5.36C11.5 5.36 5.68 11.44 5.68 18.97C5.68 26.5 11.5 32.57 18.94 32.57C23.76 32.57 26.51 30.61 28.27 28.83C29.7 27.38 30.64 25.32 31.01 22.49L18.94 22.5Z" fill="#4285F4" fill-opacity="1.000000" fill-rule="nonzero"/>
	</g>
</svg>
