<svg width="213.000000" height="44.000000" viewBox="0 0 213 44" fill="none" xmlns="http://www.w3.org/2000/svg" xmlns:xlink="http://www.w3.org/1999/xlink">
	<desc>
			Created with Pixso.
	</desc>
	<defs>
		<clipPath id="clip34_1679">
			<rect width="213.000000" height="44.000000" fill="white" fill-opacity="0"/>
		</clipPath>
	</defs>
	<rect width="213.000000" height="44.000000" fill="#FFFFFF" fill-opacity="0"/>
	<g clip-path="url(#clip34_1679)">
		<path d="M75.18 25.34L73.91 28.82L73.8 28.82C73.59 28.03 73.21 26.84 72.57 25.41L65.76 8.86L59.1 8.86L59.1 35.23L63.51 35.23L63.51 18.96C63.51 17.94 63.51 16.78 63.47 15.34C63.44 14.63 63.37 14.08 63.33 13.67L63.44 13.67C63.65 14.7 63.89 15.45 64.07 15.92L72.25 35.16L75.36 35.16L83.47 15.75C83.64 15.31 83.82 14.42 84 13.67L84.1 13.67C84 15.62 83.92 17.36 83.89 18.41L83.89 35.13L88.58 35.13L88.58 8.79L82.16 8.79L75.18 25.34ZM93.02 16.23L97.61 16.23L97.61 35.13L93.02 35.13L93.02 16.23ZM95.35 8.25C94.58 8.25 93.94 8.52 93.41 9C92.88 9.48 92.6 10.09 92.6 10.84C92.6 11.56 92.88 12.17 93.41 12.65C93.94 13.13 94.58 13.37 95.35 13.37C96.13 13.37 96.8 13.09 97.29 12.65C97.82 12.17 98.1 11.56 98.1 10.84C98.1 10.13 97.82 9.51 97.29 9C96.83 8.52 96.16 8.25 95.35 8.25ZM113.87 16.06C113.02 15.89 112.14 15.79 111.29 15.79C109.21 15.79 107.31 16.23 105.72 17.12C104.13 18 102.86 19.23 102.05 20.77C101.21 22.34 100.78 24.14 100.78 26.22C100.78 28.03 101.21 29.64 102.02 31.1C102.83 32.53 103.96 33.69 105.47 34.48C106.92 35.26 108.61 35.67 110.52 35.67C112.7 35.67 114.57 35.23 116.05 34.41L116.09 34.38L116.09 30.28L115.91 30.42C115.24 30.9 114.47 31.31 113.69 31.55C112.88 31.82 112.14 31.95 111.5 31.95C109.67 31.95 108.22 31.44 107.2 30.32C106.14 29.23 105.61 27.73 105.61 25.85C105.61 23.91 106.14 22.37 107.24 21.24C108.33 20.12 109.77 19.54 111.54 19.54C113.02 19.54 114.54 20.02 115.91 20.97L116.09 21.11L116.09 16.78L116.05 16.74C115.45 16.5 114.78 16.23 113.87 16.06ZM128.99 15.92C127.87 15.92 126.81 16.26 125.89 16.98C125.11 17.6 124.59 18.48 124.13 19.54L124.09 19.54L124.09 16.23L119.51 16.23L119.51 35.13L124.09 35.13L124.09 25.47C124.09 23.84 124.44 22.47 125.22 21.48C126 20.46 126.98 19.95 128.18 19.95C128.61 19.95 129.03 20.05 129.56 20.12C130.05 20.26 130.4 20.39 130.65 20.56L130.83 20.7L130.83 16.26L130.72 16.23C130.4 16.03 129.77 15.92 128.99 15.92ZM141.48 15.82C138.27 15.82 135.69 16.74 133.89 18.55C132.06 20.36 131.18 22.85 131.18 25.99C131.18 28.92 132.1 31.31 133.86 33.05C135.62 34.75 138.02 35.64 141.02 35.64C144.16 35.64 146.66 34.72 148.46 32.88C150.29 31.03 151.17 28.58 151.17 25.54C151.17 22.54 150.33 20.15 148.6 18.41C146.94 16.67 144.51 15.82 141.48 15.82ZM145.14 30.35C144.3 31.41 142.96 31.92 141.3 31.92C139.64 31.92 138.3 31.41 137.35 30.28C136.4 29.23 135.94 27.69 135.94 25.75C135.94 23.73 136.43 22.2 137.35 21.11C138.3 20.02 139.61 19.47 141.27 19.47C142.89 19.47 144.16 19.98 145.07 21.04C145.99 22.1 146.49 23.63 146.49 25.64C146.41 27.69 146.03 29.29 145.14 30.35ZM161.4 24.08C159.96 23.5 159.04 23.05 158.62 22.68C158.26 22.34 158.09 21.86 158.09 21.24C158.09 20.73 158.3 20.22 158.83 19.88C159.36 19.54 159.96 19.37 160.84 19.37C161.61 19.37 162.42 19.51 163.2 19.71C163.98 19.91 164.68 20.22 165.25 20.63L165.42 20.77L165.42 16.61L165.32 16.57C164.79 16.37 164.08 16.16 163.24 15.99C162.39 15.86 161.61 15.79 160.98 15.79C158.79 15.79 156.99 16.3 155.58 17.42C154.17 18.48 153.5 19.91 153.5 21.59C153.5 22.47 153.64 23.26 153.96 23.91C154.28 24.55 154.74 25.17 155.37 25.68C156.01 26.16 156.92 26.7 158.19 27.21C159.25 27.66 160.06 28 160.56 28.27C161.05 28.54 161.37 28.85 161.61 29.09C161.79 29.36 161.89 29.7 161.89 30.15C161.89 31.41 160.91 32.02 158.9 32.02C158.12 32.02 157.31 31.89 156.36 31.58C155.41 31.27 154.53 30.83 153.78 30.32L153.61 30.18L153.61 34.51L153.72 34.55C154.39 34.85 155.2 35.06 156.18 35.3C157.17 35.47 158.05 35.6 158.83 35.6C161.19 35.6 163.13 35.09 164.51 33.97C165.92 32.88 166.66 31.48 166.66 29.67C166.66 28.41 166.3 27.28 165.53 26.43C164.51 25.61 163.24 24.76 161.4 24.08ZM178.75 15.82C175.54 15.82 172.97 16.74 171.17 18.55C169.37 20.36 168.46 22.85 168.46 25.99C168.46 28.92 169.37 31.31 171.14 33.05C172.9 34.75 175.3 35.64 178.29 35.64C181.43 35.64 183.94 34.72 185.74 32.88C187.57 31.03 188.45 28.58 188.45 25.54C188.45 22.54 187.6 20.15 185.88 18.41C184.22 16.67 181.79 15.82 178.75 15.82ZM182.39 30.35C181.54 31.41 180.2 31.92 178.54 31.92C176.85 31.92 175.54 31.41 174.59 30.28C173.64 29.23 173.18 27.69 173.18 25.75C173.18 23.73 173.67 22.2 174.59 21.11C175.54 20.02 176.85 19.47 178.51 19.47C180.09 19.47 181.4 19.98 182.31 21.04C183.23 22.1 183.72 23.63 183.72 25.64C183.72 27.69 183.27 29.29 182.39 30.35ZM212.96 19.88L212.96 16.23L208.34 16.23L208.34 10.64L208.2 10.67L203.83 11.93L203.72 11.97L203.72 16.23L196.81 16.23L196.81 13.84C196.81 12.75 197.09 11.9 197.58 11.35C198.08 10.81 198.82 10.53 199.74 10.53C200.37 10.53 201.04 10.67 201.78 10.98L201.96 11.08L201.96 7.23L201.85 7.19C201.22 6.99 200.37 6.85 199.28 6.85C197.9 6.85 196.7 7.16 195.61 7.67C194.52 8.25 193.71 9.03 193.11 10.09C192.51 11.11 192.19 12.27 192.19 13.6L192.19 16.23L188.98 16.23L188.98 19.85L192.19 19.85L192.19 35.13L196.81 35.13L196.81 19.88L203.72 19.88L203.72 29.6C203.72 33.59 205.66 35.6 209.54 35.6C210.17 35.6 210.84 35.5 211.48 35.4C212.15 35.26 212.64 35.09 212.92 34.96L212.96 34.92L212.96 31.27L212.78 31.41C212.5 31.58 212.25 31.72 211.83 31.82C211.48 31.92 211.16 31.95 210.91 31.95C210 31.95 209.36 31.75 208.9 31.24C208.48 30.76 208.27 29.98 208.27 28.82L208.27 19.88L212.96 19.88Z" fill="#737373" fill-opacity="1.000000" fill-rule="nonzero"/>
		<path d="M0 0L21.61 0L21.61 20.9L0 20.9L0 0Z" fill="#F25022" fill-opacity="1.000000" fill-rule="nonzero"/>
		<path d="M23.87 0L45.49 0L45.49 20.9L23.87 20.9L23.87 0Z" fill="#7FBA00" fill-opacity="1.000000" fill-rule="nonzero"/>
		<path d="M0 23.09L21.61 23.09L21.61 44L0 44L0 23.09Z" fill="#00A4EF" fill-opacity="1.000000" fill-rule="nonzero"/>
		<path d="M23.87 23.09L45.49 23.09L45.49 44L23.87 44L23.87 23.09Z" fill="#FFB900" fill-opacity="1.000000" fill-rule="nonzero"/>
	</g>
</svg>
