<svg width="139.828125" height="42.221405" viewBox="0 0 139.828 42.2214" fill="none" xmlns="http://www.w3.org/2000/svg" xmlns:xlink="http://www.w3.org/1999/xlink">
	<desc>
			Created with Pixso.
	</desc>
	<defs/>
	<path d="M104.1 40.74L115.78 27.81L104.1 14.87L116.42 14.87L122.21 21.16L127.77 14.87L139.66 14.87L128.04 27.75L139.82 40.74L127.45 40.74L121.72 34.4L116.05 40.74L104.1 40.74Z" fill="#FF6600" fill-opacity="1.000000" fill-rule="nonzero"/>
	<path d="M104.1 9.08L90.88 9.08L90.88 14.87L104.1 14.87L104.1 23.61L90.88 23.61L90.88 31.63L104.1 31.63L104.1 40.74L81.16 40.74L81.16 0L104.1 0L104.1 9.08Z" fill="#FF6600" fill-opacity="1.000000" fill-rule="nonzero"/>
	<path d="M71.48 0L71.48 16.67L71.38 16.67C69.24 14.24 66.56 13.4 63.45 13.4C57.09 13.4 52.3 17.66 50.61 23.3C48.7 17.09 43.75 13.28 36.41 13.28C30.45 13.28 25.75 15.92 23.29 20.21L23.29 14.87L10.97 14.87L10.97 9.08L24.41 9.08L24.41 0L0 0L0 40.74L10.97 40.74L10.97 23.61L21.92 23.61C21.59 24.87 21.42 26.22 21.42 27.64C21.42 36.14 28 42.1 36.41 42.1C43.48 42.1 48.14 38.83 50.6 32.87L41.19 32.87C39.92 34.66 38.95 35.19 36.41 35.19C33.46 35.19 30.92 32.65 30.92 29.64L50.07 29.64C50.9 36.39 56.24 42.22 63.56 42.22C66.72 42.22 69.61 40.69 71.38 38.1L71.48 38.1L71.48 40.74L81.16 40.74L81.16 0L71.48 0ZM31.22 23.73C31.83 21.15 33.87 19.45 36.41 19.45C39.21 19.45 41.14 21.09 41.65 23.73C41.86 23.73 31.22 23.73 31.22 23.73ZM65.61 34.53C62.04 34.53 59.83 31.26 59.83 27.84C59.83 24.18 61.75 20.66 65.61 20.66C69.61 20.66 71.2 24.18 71.2 27.84C71.2 31.3 69.51 34.53 65.61 34.53Z" fill="#652C8F" fill-opacity="1.000000" fill-rule="nonzero"/>
</svg>
